<?xml version="1.0" encoding="UTF-8" standalone="no" ?>
<!DOCTYPE svg PUBLIC "-//W3C//DTD SVG 1.1//EN" "http://www.w3.org/Graphics/SVG/1.1/DTD/svg11.dtd">
<svg xmlns="http://www.w3.org/2000/svg" xmlns:xlink="http://www.w3.org/1999/xlink" version="1.1" width="350" height="350" viewBox="0 0 350 350" xml:space="preserve">
<desc>Created with Fabric.js 1.7.22</desc>
<defs>
</defs>
<g id="icon" style="stroke: none; stroke-width: 1; stroke-dasharray: none; stroke-linecap: butt; stroke-linejoin: miter; stroke-miterlimit: 10; fill: none; fill-rule: nonzero; opacity: 1;" transform="translate(-1.9444444444444287 -1.9444444444444287) scale(3.89 3.89)" >
	<path d="M 35.813 53.516 c -0.58 0 -1.154 -0.251 -1.549 -0.734 c -0.699 -0.855 -0.573 -2.115 0.283 -2.814 c 2.942 -2.404 6.655 -3.729 10.454 -3.729 c 3.799 0 7.512 1.324 10.454 3.729 c 0.855 0.699 0.982 1.959 0.283 2.814 c -0.7 0.855 -1.959 0.981 -2.814 0.283 c -2.263 -1.849 -5.002 -2.826 -7.923 -2.826 c -2.921 0 -5.661 0.978 -7.923 2.826 C 36.706 53.368 36.258 53.516 35.813 53.516 z" style="stroke: none; stroke-width: 1; stroke-dasharray: none; stroke-linecap: butt; stroke-linejoin: miter; stroke-miterlimit: 10; fill: rgb(0,0,0); fill-rule: nonzero; opacity: 1;" transform=" matrix(1 0 0 1 0 0) " stroke-linecap="round" />
	<path d="M 34.566 41.035 c -0.118 0 -0.237 -0.002 -0.355 -0.007 c -1.104 -0.042 -1.964 -0.972 -1.921 -2.076 c 0.042 -1.104 0.983 -1.948 2.076 -1.921 c 1.222 0.047 2.394 -0.318 3.374 -1.057 c 0.979 -0.739 1.651 -1.76 1.942 -2.953 c 0.262 -1.073 1.344 -1.729 2.417 -1.468 c 1.073 0.262 1.73 1.344 1.468 2.417 c -0.505 2.069 -1.72 3.915 -3.419 5.197 C 38.542 40.378 36.572 41.035 34.566 41.035 z" style="stroke: none; stroke-width: 1; stroke-dasharray: none; stroke-linecap: butt; stroke-linejoin: miter; stroke-miterlimit: 10; fill: rgb(0,0,0); fill-rule: nonzero; opacity: 1;" transform=" matrix(1 0 0 1 0 0) " stroke-linecap="round" />
	<path d="M 55.435 41.035 c -2.008 0 -3.977 -0.657 -5.581 -1.867 c -1.7 -1.281 -2.915 -3.127 -3.421 -5.197 c -0.262 -1.073 0.396 -2.155 1.469 -2.417 c 1.072 -0.261 2.155 0.396 2.418 1.468 c 0.291 1.193 0.963 2.214 1.942 2.952 c 0.979 0.739 2.128 1.103 3.373 1.057 c 1.151 -0.034 2.033 0.818 2.075 1.921 c 0.043 1.104 -0.817 2.033 -1.921 2.076 C 55.671 41.032 55.553 41.035 55.435 41.035 z" style="stroke: none; stroke-width: 1; stroke-dasharray: none; stroke-linecap: butt; stroke-linejoin: miter; stroke-miterlimit: 10; fill: rgb(0,0,0); fill-rule: nonzero; opacity: 1;" transform=" matrix(1 0 0 1 0 0) " stroke-linecap="round" />
	<path d="M 64.397 90 H 25.603 c -3.914 0 -7.098 -3.185 -7.098 -7.099 V 7.098 C 18.504 3.184 21.688 0 25.603 0 h 38.795 c 3.914 0 7.098 3.184 7.098 7.098 v 75.803 C 71.495 86.815 68.312 90 64.397 90 z M 25.603 4 c -1.708 0 -3.098 1.39 -3.098 3.098 v 75.803 c 0 1.709 1.39 3.099 3.098 3.099 h 38.795 c 1.708 0 3.098 -1.39 3.098 -3.099 V 7.098 C 67.495 5.39 66.105 4 64.397 4 H 25.603 z" style="stroke: none; stroke-width: 1; stroke-dasharray: none; stroke-linecap: butt; stroke-linejoin: miter; stroke-miterlimit: 10; fill: rgb(0,0,0); fill-rule: nonzero; opacity: 1;" transform=" matrix(1 0 0 1 0 0) " stroke-linecap="round" />
	<circle cx="45.003" cy="79.243" r="2.443" style="stroke: none; stroke-width: 1; stroke-dasharray: none; stroke-linecap: butt; stroke-linejoin: miter; stroke-miterlimit: 10; fill: rgb(0,0,0); fill-rule: nonzero; opacity: 1;" transform="  matrix(1 0 0 1 0 0) "/>
	<path d="M 50.402 12.067 H 39.598 c -1.104 0 -2 -0.896 -2 -2 s 0.896 -2 2 -2 h 10.804 c 1.104 0 2 0.896 2 2 S 51.507 12.067 50.402 12.067 z" style="stroke: none; stroke-width: 1; stroke-dasharray: none; stroke-linecap: butt; stroke-linejoin: miter; stroke-miterlimit: 10; fill: rgb(0,0,0); fill-rule: nonzero; opacity: 1;" transform=" matrix(1 0 0 1 0 0) " stroke-linecap="round" />
</g>
</svg>